<svg width="257" height="172" viewBox="0 0 257 172" fill="none" xmlns="http://www.w3.org/2000/svg">
<path d="M53.9139 15.4027C53.2513 14.7366 52.4563 14.1394 51.5299 13.611C50.6035 13.0809 49.5586 12.5808 48.3953 12.1104C47.5429 11.7704 46.7793 11.4411 46.1028 11.1209C45.4262 10.8007 44.8507 10.4739 44.3788 10.1404C43.9051 9.80697 43.5403 9.45528 43.2834 9.08284C43.0257 8.7104 42.8977 8.28819 42.8977 7.81788C42.8977 7.38654 43.0118 6.99835 43.2425 6.65245C43.4724 6.30573 43.7963 6.00877 44.216 5.76076C44.6356 5.51274 45.1494 5.3203 45.758 5.18261C46.3666 5.04574 47.0431 4.9769 47.7867 4.9769C48.3274 4.9769 48.8986 5.01588 49.5011 5.09551C50.1019 5.17349 50.7079 5.29293 51.3166 5.45717C51.9252 5.62223 52.5164 5.82795 53.0919 6.07596C53.6666 6.32315 54.1977 6.61181 54.6853 6.93779V1.0775C53.6979 0.712527 52.6191 0.440455 51.4498 0.263776C50.2795 0.0870958 48.9369 0 47.4228 0C45.8808 0 44.4206 0.15926 43.0405 0.47944C41.6613 0.79962 40.4467 1.30063 39.3984 1.97915C38.3509 2.65849 37.522 3.52447 36.9134 4.57626C36.3039 5.62804 36 6.88554 36 8.34958C36 10.2184 36.5581 11.8118 37.6735 13.1324C38.7897 14.4521 40.4833 15.5694 42.7549 16.4843C43.6483 16.8377 44.4789 17.1827 45.2504 17.5228C46.0209 17.8629 46.687 18.2154 47.2486 18.5804C47.8094 18.9462 48.2525 19.3452 48.5773 19.7757C48.9021 20.2062 49.064 20.6973 49.064 21.2455C49.064 21.6503 48.9622 22.0269 48.7602 22.372C48.5573 22.7187 48.2499 23.019 47.8364 23.2745C47.4236 23.5291 46.9099 23.7282 46.2943 23.8725C45.6787 24.0168 44.9587 24.0882 44.1341 24.0882C42.7271 24.0882 41.3339 23.8501 39.9547 23.3723C38.5756 22.8962 37.2965 22.1795 36.1202 21.2265V27.499C37.1746 28.0224 38.4232 28.4131 39.8633 28.6752C41.3035 28.9357 42.822 29.0676 44.418 29.0676C45.973 29.0676 47.4506 28.9232 48.8507 28.6354C50.2499 28.3484 51.4785 27.8756 52.5329 27.2162C53.5874 26.5567 54.4224 25.6932 55.0379 24.629C55.6535 23.5631 55.9609 22.2459 55.9609 20.679C55.9609 19.5418 55.785 18.5456 55.4332 17.6895C55.0841 16.8319 54.5765 16.0704 53.9139 15.4027Z" fill="#0E4A7A"/>
<path fill-rule="evenodd" clip-rule="evenodd" d="M66.068 8.76514C64.8882 8.76514 63.5804 8.93353 62.1455 9.26947C60.7097 9.60541 59.5778 9.99444 58.7498 10.4332V15.051C60.8186 13.6408 63.0005 12.9358 65.2966 12.9358C67.5787 12.9358 68.7202 14.0216 68.7202 16.1957L63.4907 16.9132C59.0632 17.5079 56.8508 19.7334 56.8508 23.5863C56.8508 25.4104 57.3862 26.8686 58.4589 27.9619C59.5308 29.0551 61.0005 29.6017 62.8699 29.6017C65.4028 29.6017 67.3149 28.4902 68.607 26.2647H68.6827V29.1173H74.3066V17.2441C74.3058 11.5904 71.5596 8.76514 66.068 8.76514ZM68.7193 21.0473C68.7193 22.2625 68.3684 23.2687 67.6666 24.0641C66.9631 24.8596 66.0541 25.2569 64.9387 25.2569C64.1359 25.2569 63.4994 25.0346 63.0293 24.5875C62.5591 24.1421 62.324 23.5689 62.324 22.8713C62.324 21.3318 63.2896 20.4343 65.2217 20.1747L68.7202 19.7077L68.7193 21.0473Z" fill="#0E4A7A"/>
<path d="M83.079 12.4572C84.4451 10.055 86.432 8.8539 89.0415 8.8539C93.1478 8.8539 95.2026 11.5638 95.2035 16.9845V29.0642H89.4943V18.101C89.4943 15.0443 88.4669 13.5156 86.4146 13.5156C85.4229 13.5156 84.607 13.9195 83.9671 14.73C83.3262 15.5387 83.0067 16.5673 83.0067 17.8115V29.0651H77.2801V9.33583H83.0067V12.4572H83.079Z" fill="#0E4A7A"/>
<path d="M11.0187 12.8292C8.95921 11.3739 7.92946 9.26661 7.92946 6.50723C7.92946 4.3999 8.50517 2.78902 9.65784 1.67608C10.8093 0.558692 12.4737 8.16539e-06 14.6498 8.07027e-06L24.6175 7.63457e-06V3.08541L15.3183 3.08541C11.8578 3.08541 10.1269 4.57773 10.1269 7.56237C10.1269 9.10508 10.6186 10.381 11.5994 11.3917C12.5815 12.4009 13.822 12.9048 15.3183 12.9048H24.6175V15.9902L8.31201 15.9902V12.9048H11.0187V12.8292Z" fill="#0E4A7A"/>
<path fill-rule="evenodd" clip-rule="evenodd" d="M22.6508 23.5244C24.2173 25.2627 25 27.5909 25 30.5133C25 33.3616 24.2374 35.6349 22.7147 37.3332C21.1921 39.0345 19.1727 39.8821 16.6566 39.8821C13.9186 39.8821 11.7801 38.9989 10.2398 37.2309C8.69958 35.463 7.93072 33.0711 7.93072 30.0613C7.93072 27.1908 8.67951 24.9471 10.1759 23.3362C11.6722 21.7253 13.748 20.9177 16.402 20.9177C19.0021 20.9177 21.0854 21.7861 22.6508 23.5244ZM10.1269 30.288C10.1269 32.2709 10.6976 33.8388 11.839 34.9917C12.9804 36.1461 14.5545 36.7226 16.5601 36.7226C18.4916 36.7226 20.0156 36.1402 21.1306 34.9739C22.2456 33.8076 22.8025 32.2442 22.8025 30.288C22.8025 28.2933 22.2557 26.761 21.162 25.6881C20.0682 24.6151 18.513 24.0787 16.4961 24.0787C14.4579 24.0787 12.8863 24.6151 11.7826 25.6881C10.6788 26.761 10.1269 28.2933 10.1269 30.288Z" fill="#0E4A7A"/>
<path d="M4.17169 46.3182C4.17169 45.7536 4.00738 45.275 3.67751 44.8793C3.34763 44.4836 2.95003 44.2865 2.48345 44.2865C1.99428 44.2865 1.58915 44.4851 1.26555 44.8793C0.940699 45.275 0.778899 45.7536 0.778899 46.3182C0.778899 46.871 0.9407 47.3408 1.26555 47.7305C1.58915 48.1188 1.99428 48.3129 2.48345 48.3129C2.97261 48.3129 3.37523 48.1188 3.69381 47.7305C4.01239 47.3408 4.17169 46.871 4.17169 46.3182Z" fill="#0E4A7A"/>
<path d="M8.31202 47.898L8.31201 44.8126H24.6175V47.898H8.31202Z" fill="#0E4A7A"/>
<path d="M23.8687 52.5631L21.3852 52.5631C22.3297 54.0436 22.8025 55.6234 22.8025 57.3039C22.8025 59.2986 22.2507 60.8887 21.1469 62.0743C20.0432 63.2598 18.5355 63.8511 16.6253 63.8511C14.6824 63.8511 13.1146 63.2213 11.9193 61.9617C10.7265 60.7005 10.1282 59.0867 10.1282 57.1157C10.1282 55.4856 10.5534 53.9547 11.4025 52.5246H8.72592C8.19537 53.8169 7.92946 55.3092 7.92946 57.0016C7.92946 60.0381 8.74348 62.4655 10.374 64.2839C12.0033 66.1022 14.1607 67.0107 16.846 67.0107C19.2555 67.0107 21.2159 66.1689 22.7298 64.481C24.2412 62.793 24.9988 60.576 24.9988 57.83C25 55.7997 24.6225 54.0436 23.8687 52.5631Z" fill="#0E4A7A"/>
<path fill-rule="evenodd" clip-rule="evenodd" d="M22.07 74.6708C24.0242 76.012 25 77.9874 25 80.5957C25 82.5148 24.5673 84.0145 23.7081 85.1008C22.8489 86.187 21.7076 86.7279 20.2852 86.7279C17.2399 86.7279 15.4651 84.6088 14.9671 80.3689L14.2823 74.5953C11.5116 74.5953 10.1269 75.9186 10.1269 78.5639C10.1269 80.8846 10.7967 82.9786 12.1338 84.8474H9.45841C8.4387 82.9549 7.92947 80.772 7.92947 78.3001C7.92947 73.7728 9.95761 71.5098 14.0127 71.5098H24.6175V74.5953H22.07V74.6708ZM16.91 79.2412C17.0806 80.6712 17.3804 81.7516 17.8093 82.4777C18.2408 83.2054 19.0009 83.5684 20.0933 83.5699C20.8898 83.5699 21.5407 83.2335 22.0437 82.5637C22.5492 81.8924 22.8013 80.9987 22.8013 79.8814C22.8013 78.3505 22.3485 77.0879 21.4392 76.0905C20.5323 75.0932 19.3822 74.5953 17.9924 74.5953H16.3682L16.91 79.2412Z" fill="#0E4A7A"/>
<path fill-rule="evenodd" clip-rule="evenodd" d="M21.8468 94.7067V94.6312H24.6175L24.6175 91.5458H0.477878L0.477878 94.6312H10.5735V94.7067C8.81122 95.9116 7.93072 97.8366 7.93072 100.483C7.93072 103.155 8.74223 105.292 10.3665 106.897C11.9908 108.504 14.1519 109.305 16.8473 109.305C19.3633 109.305 21.3514 108.582 22.8101 107.133C24.27 105.684 25 103.75 25 101.328C25 98.3449 23.9489 96.1368 21.8468 94.7067ZM22.8025 100.426C22.8025 102.17 22.2582 103.558 21.1707 104.594C20.082 105.629 18.5982 106.146 16.7194 106.146C14.6599 106.146 13.0456 105.608 11.8791 104.528C10.7114 103.449 10.1282 101.968 10.1282 100.088C10.1282 98.5079 10.5847 97.2038 11.4979 96.1739C12.411 95.1469 13.5247 94.6312 14.8417 94.6312H17.2461C18.8491 94.6312 20.1761 95.1676 21.2272 96.2406C22.2783 97.3135 22.8025 98.708 22.8025 100.426Z" fill="#0E4A7A"/>
<path d="M11.5994 125.195C12.5815 126.204 13.822 126.709 15.3183 126.709H24.6175V129.795H8.31202V126.711H11.02V126.635C8.96047 125.18 7.93072 123.073 7.93072 120.315C7.93072 118.207 8.50643 116.595 9.65784 115.478C10.8093 114.362 12.4737 113.805 14.6498 113.805H24.6175V116.89H15.3183C11.8578 116.89 10.1269 118.381 10.1269 121.367C10.1269 122.91 10.6186 124.186 11.5994 125.195Z" fill="#0E4A7A"/>
<path d="M25 145.128C25 142.445 24.0129 140.463 22.0387 139.183V139.107H24.6187V136.022H8.31327V139.107H17.7077C19.2254 139.107 20.4533 139.593 21.394 140.566C22.3322 141.538 22.8025 142.777 22.8025 144.281C22.8025 147.391 21.0829 148.946 17.6437 148.946H8.31202V152.012H18.0577C22.6859 152.014 25 149.718 25 145.128Z" fill="#0E4A7A"/>
<path d="M14.5056 166.839L14.5056 157.094H12.1012L12.1012 166.839H4.2043L4.2043 156.304H1.78357L1.78357 170H24.6175V166.839H14.5056Z" fill="#0E4A7A"/>
<path d="M0 25.7725L1.36552e-07 28.8965L5.22276 33.0933V30.7015L0 25.7725Z" fill="#0E4A7A"/>
<path d="M120.731 114H132.403V169.988H120.731V114Z" fill="#0E4A7A"/>
<path d="M254.273 125.02C253.029 126.152 251.411 126.72 249.416 126.72C247.444 126.72 245.834 126.134 244.579 124.964C243.322 123.795 242.694 122.361 242.694 120.661C242.694 118.913 243.322 117.485 244.579 116.378C245.834 115.27 247.444 114.715 249.416 114.715C251.411 114.715 253.028 115.27 254.273 116.378C255.515 117.485 256.137 118.913 256.137 120.661C256.137 122.436 255.515 123.887 254.273 125.02Z" fill="#0E4A7A"/>
<path fill-rule="evenodd" clip-rule="evenodd" d="M100.007 131.756C97.89 131.756 95.5436 132.073 92.9675 132.706C90.3914 133.339 88.3605 134.071 86.8764 134.898V143.595C90.5882 140.939 94.5031 139.611 98.6227 139.611C102.717 139.611 104.765 141.656 104.765 145.751L95.3827 147.102C87.4388 148.222 83.4692 152.413 83.4692 159.67C83.4692 163.105 84.43 165.852 86.3546 167.911C88.2793 169.97 90.9163 170.999 94.2688 170.999C98.8133 170.999 102.244 168.906 104.562 164.714H104.698V170.087H114.789V147.725C114.787 137.077 109.861 131.756 100.007 131.756ZM104.764 154.888C104.764 157.177 104.134 159.072 102.875 160.57C101.613 162.068 99.9818 162.816 97.9806 162.816C96.5403 162.816 95.3983 162.398 94.5547 161.556C93.7111 160.717 93.2877 159.637 93.2877 158.323C93.2877 155.424 95.0202 153.733 98.4868 153.245L104.764 152.365V154.888Z" fill="#0E4A7A"/>
<path d="M255.177 132.703H243.509V170.52H255.177V132.703Z" fill="#0E4A7A"/>
<path d="M204.464 157.209V142.35H211.291V133.985H204.464V122.822L192.976 124.49V133.985H186.921V142.35H192.976V159.182C192.976 167.487 197.036 171.638 205.157 171.638C208.584 171.638 211.152 171.196 212.854 170.31V161.91C211.563 162.605 210.313 162.951 209.096 162.951C206.009 162.952 204.464 161.037 204.464 157.209Z" fill="#0E4A7A"/>
<path d="M230.46 142.35V157.209C230.46 161.037 232.005 162.952 235.092 162.951C236.309 162.951 237.559 162.605 238.849 161.91V170.31C237.148 171.196 234.58 171.638 231.152 171.638C223.032 171.638 218.971 167.487 218.971 159.182V142.35H212.916V133.985H218.971V124.49L230.46 122.822V133.985H237.287V142.35H230.46Z" fill="#0E4A7A"/>
<path fill-rule="evenodd" clip-rule="evenodd" d="M59.6873 117.029H41V169.988H52.9291V151.742H58.6171C65.0191 151.742 70.1339 150.1 73.9613 146.814C77.7887 143.526 79.704 139.224 79.704 133.904C79.7024 122.655 73.0317 117.029 59.6873 117.029ZM57.6173 142.695H52.9276V126.188H57.6173C63.9693 126.188 67.1469 128.907 67.1469 134.351C67.1469 139.913 63.9709 142.695 57.6173 142.695Z" fill="#0E4A7A"/>
<path d="M149.065 114H137.394V169.988H149.065V114Z" fill="#0E4A7A"/>
<path fill-rule="evenodd" clip-rule="evenodd" d="M155.341 137.277C158.456 133.743 162.667 131.976 167.972 131.976C173.196 131.976 177.292 133.743 180.26 137.277C183.232 140.808 184.719 145.479 184.719 151.292C184.719 157.57 183.186 162.532 180.126 166.175C177.062 169.818 172.868 171.64 167.542 171.64C162.299 171.64 158.175 169.873 155.173 166.339C152.173 162.805 150.672 158.012 150.672 151.956C150.672 145.702 152.228 140.808 155.341 137.277ZM160.534 151.806C160.534 159.072 163.25 162.702 168.126 162.702C172.776 162.702 174.824 158.97 174.824 151.514C174.824 144.448 172.477 140.914 167.788 140.914C165.493 140.914 163.71 141.859 162.44 143.757C161.168 145.652 160.534 148.336 160.534 151.806Z" fill="#0E4A7A"/>
<path d="M88.8608 44.335C86.8893 44.335 85.2787 44.8895 84.0226 45.9972C82.7666 47.1048 82.1386 48.5326 82.1386 50.2808C82.1386 51.9805 82.7666 53.4146 84.0226 54.5831C85.2787 55.7517 86.8893 56.3375 88.8608 56.3375C90.8542 56.3375 92.4743 55.7704 93.7162 54.6378C94.9582 53.5052 95.5815 52.0539 95.5815 50.2792C95.5815 48.5311 94.9597 47.1032 93.7162 45.9956C92.4727 44.888 90.8542 44.335 88.8608 44.335Z" fill="#0E4A7A"/>
<path d="M59.149 83.3576C58.6288 85.3292 58.2929 87.1382 58.1414 88.7879H57.9445C57.8383 87.2601 57.5227 85.501 57.004 83.5076L47.2949 46.6486H36L51.8425 99.6078H63.7247L79.7625 46.6486H68.7894L59.149 83.3576Z" fill="#0E4A7A"/>
<path d="M183.074 61.5428C178.392 61.5428 174.827 63.8049 172.376 68.3291H172.246V62.4505H161.971V99.6078H172.246V78.4132C172.246 76.0699 172.819 74.1327 173.969 72.6096C175.117 71.0833 176.581 70.3225 178.36 70.3225C182.043 70.3225 183.886 73.2017 183.886 78.9584V99.6063H194.129V76.8557C194.128 66.6466 190.441 61.5428 183.074 61.5428Z" fill="#0E4A7A"/>
<path d="M82.9525 62.3224H94.6223V100.139H82.9525V62.3224Z" fill="#0E4A7A"/>
<path fill-rule="evenodd" clip-rule="evenodd" d="M131.686 67.0965C135.01 63.4284 139.102 61.5944 143.953 61.5944C148.988 61.5944 152.877 63.2331 155.63 66.5044C158.384 69.7773 159.761 74.2218 159.761 79.8348V84.748H137.246C137.607 90.2377 140.764 92.9825 146.718 92.9825C150.514 92.9825 153.849 91.9998 156.727 90.0299V98.4502C153.538 100.32 149.392 101.258 144.29 101.258C138.718 101.258 134.395 99.5641 131.316 96.1772C128.237 92.7934 126.698 88.074 126.698 82.0173C126.698 75.7387 128.362 70.7646 131.686 67.0965ZM139.455 71.7878C138.207 73.3376 137.447 75.2732 137.179 77.5852H149.886C149.886 72.169 147.886 69.4601 143.887 69.4601C142.179 69.4601 140.702 70.2366 139.455 71.7878Z" fill="#0E4A7A"/>
<path fill-rule="evenodd" clip-rule="evenodd" d="M240.029 61.5944C235.178 61.5944 231.087 63.4284 227.762 67.0965C224.438 70.7646 222.774 75.7387 222.774 82.0173C222.774 88.074 224.313 92.7934 227.392 96.1772C230.471 99.5641 234.794 101.258 240.366 101.258C245.469 101.258 249.615 100.32 252.803 98.4502V90.0299C249.926 91.9998 246.59 92.9825 242.794 92.9825C236.84 92.9825 233.683 90.2377 233.322 84.748H255.837V79.8348C255.837 74.2218 254.461 69.7773 251.706 66.5044C248.954 63.2331 245.064 61.5944 240.029 61.5944ZM233.255 77.5852C233.524 75.2732 234.283 73.3376 235.531 71.7878C236.778 70.2366 238.256 69.4601 239.963 69.4601C243.963 69.4601 245.962 72.169 245.962 77.5852H233.255Z" fill="#0E4A7A"/>
<path d="M211.67 71.9691V86.8289C211.67 90.6563 213.217 92.5716 216.302 92.57C217.519 92.57 218.769 92.2248 220.059 91.5296V99.9297C218.358 100.815 215.789 101.258 212.362 101.258C204.242 101.258 200.181 97.1067 200.181 88.802V71.9691H194.126V63.6049H200.181V54.1098L211.67 52.4413V63.6049H218.497V71.9691H211.67Z" fill="#0E4A7A"/>
<path d="M110.912 81.0018C110.912 75.8668 114.717 71.705 119.412 71.705C121.139 71.705 122.747 72.2721 124.087 73.2423V61.9318C122.611 61.7115 120.914 61.5944 118.969 61.5944C112.519 61.5944 107.367 63.4065 103.513 67.0324C99.6589 70.6568 97.7342 75.6153 97.7342 81.9032C97.7342 87.3491 99.5308 91.7936 103.125 95.2383C106.72 98.6861 111.422 100.408 117.232 100.408C119.841 100.408 122.12 100.197 124.087 99.7859V88.7614C122.747 89.7299 121.139 90.297 119.412 90.297C114.717 90.2955 110.912 86.1337 110.912 81.0018Z" fill="#0E4A7A"/>
</svg>
